HIERARCHY
ROOT joint_0
{
	OFFSET 0.000000 0.000000 0.000000
	CHANNELS 6 Xposition Yposition Zposition Zrotation Yrotation Xrotation 
	JOINT joint_1
	{
		OFFSET 7.683380 1.521202 101.454956
		CHANNELS 3 Zrotation Yrotation Xrotation
		JOINT joint_2
		{
			OFFSET -4.816528 0.859650 92.807007
			CHANNELS 3 Zrotation Yrotation Xrotation
			JOINT joint_3
			{
				OFFSET -7.237778 1.114670 92.543091
				CHANNELS 3 Zrotation Yrotation Xrotation
				JOINT joint_4
				{
					OFFSET 0.479660 2.971886 127.844971
					CHANNELS 3 Zrotation Yrotation Xrotation
					JOINT joint_5
					{
						OFFSET 15.211349 9.937172 76.390015
						CHANNELS 3 Zrotation Yrotation Xrotation
						End Site
						{
							OFFSET 0.000000 0.000000 0.000000
						}
					}
				}
				JOINT joint_6
				{
					OFFSET 2.887054 -26.053230 72.331909
					CHANNELS 3 Zrotation Yrotation Xrotation
					JOINT joint_7
					{
						OFFSET 10.229767 -132.540291 -13.979004
						CHANNELS 3 Zrotation Yrotation Xrotation
						JOINT joint_8
						{
							OFFSET 17.695633 -10.988861 -262.204956
							CHANNELS 3 Zrotation Yrotation Xrotation
							JOINT joint_9
							{
								OFFSET 11.003433 -0.031860 -255.909973
								CHANNELS 3 Zrotation Yrotation Xrotation
								End Site
								{
									OFFSET 0.000000 0.000000 0.000000
								}
							}
						}
					}
				}
				JOINT joint_10
				{
					OFFSET -2.092239 29.348854 71.062988
					CHANNELS 3 Zrotation Yrotation Xrotation
					JOINT joint_11
					{
						OFFSET -11.853149 131.935837 -17.877075
						CHANNELS 3 Zrotation Yrotation Xrotation
						JOINT joint_12
						{
							OFFSET 14.084503 10.700203 -262.437012
							CHANNELS 3 Zrotation Yrotation Xrotation
							JOINT joint_13
							{
								OFFSET 48.202347 13.087273 -251.229919
								CHANNELS 3 Zrotation Yrotation Xrotation
								End Site
								{
									OFFSET 0.000000 0.000000 0.000000
								}
							}
						}
					}
				}
			}
		}
	}
	JOINT joint_14
	{
		OFFSET 4.150818 -83.296913 -102.580017
		CHANNELS 3 Zrotation Yrotation Xrotation
		JOINT joint_15
		{
			OFFSET -36.423187 -7.342392 -449.858948
			CHANNELS 3 Zrotation Yrotation Xrotation
			JOINT joint_16
			{
				OFFSET -41.100235 -7.280350 -426.202026
				CHANNELS 3 Zrotation Yrotation Xrotation
				JOINT joint_17
				{
					OFFSET 175.972961 13.159744 -75.358000
					CHANNELS 3 Zrotation Yrotation Xrotation
					End Site
					{
						OFFSET 0.000000 0.000000 0.000000
					}
				}
			}
		}
	}
	JOINT joint_18
	{
		OFFSET -9.062592 83.477568 -102.093018
		CHANNELS 3 Zrotation Yrotation Xrotation
		JOINT joint_19
		{
			OFFSET -39.145699 -6.092751 -449.645996
			CHANNELS 3 Zrotation Yrotation Xrotation
			JOINT joint_20
			{
				OFFSET -32.926178 -7.016375 -426.911980
				CHANNELS 3 Zrotation Yrotation Xrotation
				JOINT joint_21
				{
					OFFSET 176.289299 16.780729 -73.883997
					CHANNELS 3 Zrotation Yrotation Xrotation
					End Site
					{
						OFFSET 0.000000 0.000000 0.000000
					}
				}
			}
		}
	}
}
MOTION
Frames: 10
Frame Time: 0.016667
887.604980 -49.191235 1077.192993 -1.011330 -2.823853 0.253890 -0.217698 5.755962 2.762073 -0.364772 -1.055166 -0.666632 -0.306781 1.161691 0.425143 -0.536072 1.835359 1.464441 0.000000 0.000000 0.000000 2.337276 -1.574188 2.824352 -0.364690 -1.942293 -5.660154 0.053723 -0.951130 1.184970 0.000000 0.000000 0.000000 -2.296363 -1.729160 -2.671456 -0.275136 -1.048034 1.819169 -0.235408 7.592904 -3.942670 0.000000 0.000000 0.000000 1.084868 -1.634133 0.423248 1.064385 2.096456 -0.050710 1.031699 2.470424 0.255194 0.000000 0.000000 0.000000 2.239706 -0.261138 0.644427 2.248793 2.623613 0.086647 2.236052 0.021286 0.932469 0.000000 0.000000 0.000000 
887.700562 -49.198231 1077.183960 -1.031882 -2.825361 0.248991 -0.202031 5.754561 2.759735 -0.348698 -1.055058 -0.665591 -0.290938 1.162994 0.423208 -0.537487 1.827182 1.476818 0.000000 0.000000 0.000000 2.326589 -1.568436 2.838720 -0.364608 -1.938970 -5.662892 0.053448 -0.942458 1.179399 0.000000 0.000000 0.000000 -2.297396 -1.730678 -2.672531 -0.275547 -1.050035 1.811883 -0.235137 7.587322 -3.934658 0.000000 0.000000 0.000000 1.085149 -1.619955 0.424059 1.065059 2.079789 -0.049621 1.032135 2.467639 0.255594 0.000000 0.000000 0.000000 2.245454 -0.257100 0.651142 2.255025 2.634376 0.086533 2.242362 0.011980 0.935995 0.000000 0.000000 0.000000 
887.805054 -49.206379 1077.175049 -1.052558 -2.827388 0.244864 -0.186167 5.751805 2.754224 -0.332295 -1.054962 -0.664665 -0.274716 1.163878 0.421809 -0.538060 1.813233 1.488792 0.000000 0.000000 0.000000 2.318819 -1.561056 2.852258 -0.364001 -1.933283 -5.660305 0.052748 -0.932441 1.164194 0.000000 0.000000 0.000000 -2.299599 -1.730715 -2.675042 -0.276042 -1.050042 1.807272 -0.235384 7.578475 -3.928179 0.000000 0.000000 0.000000 1.088081 -1.606683 0.426102 1.068380 2.066928 -0.048094 1.035216 2.466902 0.256968 0.000000 0.000000 0.000000 2.251108 -0.250746 0.657342 2.261244 2.642713 0.085695 2.248544 0.003602 0.939381 0.000000 0.000000 0.000000 
887.921570 -49.215633 1077.165039 -1.073869 -2.829050 0.240518 -0.168880 5.746136 2.747303 -0.314401 -1.053542 -0.663633 -0.257091 1.164570 0.419131 -0.538064 1.792445 1.502413 0.000000 0.000000 0.000000 2.311723 -1.551842 2.866012 -0.362999 -1.925434 -5.653765 0.051716 -0.920778 1.141537 0.000000 0.000000 0.000000 -2.304078 -1.729834 -2.676854 -0.276700 -1.048841 1.803441 -0.236051 7.566693 -3.922582 0.000000 0.000000 0.000000 1.093067 -1.593841 0.429681 1.073817 2.055223 -0.046032 1.040381 2.468884 0.259028 0.000000 0.000000 0.000000 2.256768 -0.243259 0.663821 2.267518 2.649555 0.084984 2.254753 -0.004568 0.942760 0.000000 0.000000 0.000000 
888.042175 -49.224525 1077.152954 -1.092020 -2.831582 0.236989 -0.154843 5.740103 2.738048 -0.299632 -1.051071 -0.662092 -0.242549 1.163630 0.417109 -0.537307 1.768151 1.514607 0.000000 0.000000 0.000000 2.304701 -1.543980 2.879561 -0.362060 -1.918944 -5.647513 0.050819 -0.910446 1.121788 0.000000 0.000000 0.000000 -2.305518 -1.727786 -2.680157 -0.277133 -1.046520 1.801727 -0.236611 7.557064 -3.917753 0.000000 0.000000 0.000000 1.097681 -1.580818 0.432183 1.078661 2.046201 -0.042715 1.045157 2.469777 0.261003 0.000000 0.000000 0.000000 2.261488 -0.234622 0.669299 2.272771 2.656004 0.084477 2.259983 -0.012754 0.945731 0.000000 0.000000 0.000000 
888.166199 -49.227989 1077.137939 -1.103440 -2.834667 0.234297 -0.146546 5.733197 2.728412 -0.290591 -1.050548 -0.660480 -0.233815 1.163202 0.414631 -0.536035 1.744725 1.523762 0.000000 0.000000 0.000000 2.294099 -1.539109 2.893946 -0.361635 -1.916153 -5.645129 0.050410 -0.905257 1.112771 0.000000 0.000000 0.000000 -2.303337 -1.724556 -2.685538 -0.276941 -1.042930 1.803367 -0.236521 7.554519 -3.913313 0.000000 0.000000 0.000000 1.100110 -1.568177 0.432117 1.080905 2.040901 -0.037490 1.047704 2.468209 0.262213 0.000000 0.000000 0.000000 2.264394 -0.225203 0.673026 2.276008 2.661461 0.084832 2.263314 -0.021193 0.947933 0.000000 0.000000 0.000000 
888.295837 -49.229488 1077.121948 -1.109830 -2.838532 0.232460 -0.143013 5.725250 2.716118 -0.286132 -1.051038 -0.657592 -0.229738 1.163985 0.412960 -0.533814 1.717548 1.530706 0.000000 0.000000 0.000000 2.282498 -1.536785 2.908803 -0.361521 -1.916238 -5.645411 0.050284 -0.903579 1.109901 0.000000 0.000000 0.000000 -2.297477 -1.720636 -2.693928 -0.276235 -1.038530 1.808020 -0.235923 7.556684 -3.908766 0.000000 0.000000 0.000000 1.100970 -1.555309 0.430239 1.081252 2.038368 -0.030466 1.048656 2.465978 0.262791 0.000000 0.000000 0.000000 2.265902 -0.214616 0.675566 2.277753 2.666056 0.085370 2.265197 -0.029032 0.949472 0.000000 0.000000 0.000000 
888.421082 -49.230408 1077.104980 -1.113121 -2.843780 0.230242 -0.142106 5.719257 2.706118 -0.284471 -1.050913 -0.655344 -0.228469 1.164402 0.410330 -0.531071 1.691607 1.534265 0.000000 0.000000 0.000000 2.271227 -1.536311 2.922381 -0.361400 -1.917963 -5.644600 0.050304 -0.903823 1.110252 0.000000 0.000000 0.000000 -2.290221 -1.716363 -2.702674 -0.275335 -1.033773 1.814120 -0.235217 7.558679 -3.904080 0.000000 0.000000 0.000000 1.101453 -1.542818 0.429322 1.081272 2.039856 -0.023898 1.049343 2.462015 0.263386 0.000000 0.000000 0.000000 2.266325 -0.203683 0.678372 2.278381 2.671906 0.086434 2.266070 -0.037220 0.950622 0.000000 0.000000 0.000000 
888.532776 -49.234985 1077.088989 -1.113933 -2.851866 0.227106 -0.142714 5.720621 2.698132 -0.284426 -1.052327 -0.653124 -0.228679 1.166176 0.409872 -0.527641 1.668140 1.532699 0.000000 0.000000 0.000000 2.259448 -1.538296 2.930603 -0.360992 -1.921513 -5.639783 0.050367 -0.905533 1.111475 0.000000 0.000000 0.000000 -2.285716 -1.712860 -2.713563 -0.274198 -1.029128 1.820727 -0.234342 7.556451 -3.897373 0.000000 0.000000 0.000000 1.101768 -1.530284 0.431587 1.081533 2.046420 -0.020170 1.050111 2.456019 0.264166 0.000000 0.000000 0.000000 2.266126 -0.192377 0.682258 2.278394 2.680884 0.088048 2.266462 -0.045150 0.951542 0.000000 0.000000 0.000000 
888.635681 -49.241570 1077.072998 -1.112233 -2.862353 0.223024 -0.145942 5.726670 2.693393 -0.287231 -1.053234 -0.651547 -0.231760 1.167121 0.408272 -0.523927 1.647153 1.528101 0.000000 0.000000 0.000000 2.249906 -1.542219 2.936703 -0.360452 -1.926391 -5.632047 0.050500 -0.909865 1.114107 0.000000 0.000000 0.000000 -2.279588 -1.709283 -2.724689 -0.272818 -1.024452 1.828683 -0.233284 7.553139 -3.889771 0.000000 0.000000 0.000000 1.101817 -1.518009 0.436164 1.081754 2.058104 -0.017962 1.050807 2.448740 0.265009 0.000000 0.000000 0.000000 2.265049 -0.180321 0.687180 2.277546 2.691904 0.090292 2.266118 -0.053256 0.952170 0.000000 0.000000 0.000000 
